<svg width="32" height="32" viewBox="0 0 32 32" fill="none" xmlns="http://www.w3.org/2000/svg">
  <!-- Background circle with dark color for visibility on light backgrounds -->
  <circle cx="16" cy="16" r="16" fill="#070707"/>

  <!-- TikTok-style logo with cyan accent -->
  <path d="M20 10C20 10 20.5 12 22.5 12.5V15C21 15 19.5 14.5 18.5 13.5V19C18.5 22 16 24 13 24C10 24 7.5 22 7.5 19C7.5 16 10 14 13 14C13.3 14 13.6 14 13.9 14.1V16.8C13.6 16.7 13.3 16.7 13 16.7C11.5 16.7 10.2 17.8 10.2 19.2C10.2 20.6 11.3 21.7 12.7 21.7C14.1 21.7 15.5 20.8 15.5 19V8H18C18 8 18 8.7 18.3 9.5C18.6 10.3 19.2 10.8 20 10Z" fill="#25f4ee"/>

  <!-- Accent shadow for depth -->
  <path d="M20 10C20 10 20.5 12 22.5 12.5V15C21 15 19.5 14.5 18.5 13.5V19C18.5 22 16 24 13 24C10 24 7.5 22 7.5 19C7.5 16 10 14 13 14C13.3 14 13.6 14 13.9 14.1V16.8C13.6 16.7 13.3 16.7 13 16.7C11.5 16.7 10.2 17.8 10.2 19.2C10.2 20.6 11.3 21.7 12.7 21.7C14.1 21.7 15.5 20.8 15.5 19V8H18C18 8 18 8.7 18.3 9.5C18.6 10.3 19.2 10.8 20 10Z" fill="#25f4ee" opacity="0.3" transform="translate(0.5, 0.5)"/>
</svg>
